<svg width="110" height="56" viewBox="0 0 110 56" fill="none" xmlns="http://www.w3.org/2000/svg">
<path d="M0 51.2105H3.4593C3.54853 52.1263 3.95501 52.8798 5.46405 52.8798C6.51006 52.8798 7.09605 52.3598 7.09605 51.6053C7.09605 50.8157 6.61716 50.6033 5.09127 50.3668C1.50805 49.936 0.302395 48.8639 0.302395 46.2757C0.302395 43.9611 2.18623 42.2738 5.21521 42.2738C8.266 42.2738 9.98719 43.5664 10.2172 46.2757H6.84618C6.83778 46.0734 6.7877 45.8751 6.69916 45.6935C6.61062 45.5118 6.48557 45.3508 6.33198 45.2208C6.1784 45.0908 5.99967 44.9945 5.8072 44.9383C5.61473 44.882 5.41277 44.8669 5.21421 44.894C4.23859 44.894 3.74184 45.3419 3.74184 45.9882C3.74184 46.7056 4.13251 47.0292 5.71095 47.2456C8.92137 47.6044 10.5692 48.448 10.5692 51.2295C10.5692 53.5792 8.72504 55.5 5.46108 55.5C1.91554 55.5 0.106089 53.997 0 51.2105ZM17.1011 42.4531H25.8638V45.2878H20.722V47.4921H24.8198V50.1123H20.722V52.445H26.1493V55.2806H17.1031L17.1011 42.4531ZM33.2751 42.4531H38.2415C41.558 42.4531 43.4031 43.8168 43.4031 46.5252V46.5984C43.4436 47.3371 43.2412 48.0686 42.8272 48.6789C42.4133 49.2891 41.8112 49.7438 41.1148 49.972L44.1477 55.2826H40.3166L37.7447 50.6875H36.893V55.2826H33.2751V42.4531ZM38.064 48.3027C39.2875 48.3027 39.8913 47.7837 39.8913 46.7427V46.6705C39.8913 45.6304 39.2528 45.2166 38.0818 45.2166H36.8921V48.3027H38.064ZM50.2146 42.4531H55.1809C58.4974 42.4531 60.3426 43.8168 60.3426 46.5252V46.5984C60.3829 47.3371 60.1804 48.0685 59.7665 48.6787C59.3526 49.2889 58.7506 49.7437 58.0543 49.972L61.0872 55.2826H57.2561L54.6842 50.6875H53.8375V55.2826H50.2196L50.2146 42.4531ZM55.0035 48.3027C56.227 48.3027 56.8308 47.7837 56.8308 46.7427V46.6705C56.8308 45.6304 56.1922 45.2166 55.0213 45.2166H53.8315V48.3027H55.0035ZM69.8519 42.4531H74.5525L78.5789 55.2836H74.73L74.0558 52.8968H69.8519L69.1777 55.2836H65.7898L69.8519 42.4531ZM70.5618 50.3688H73.3469L71.9588 45.4341L70.5618 50.3688ZM84.0826 42.4531H87.7363V52.4299H92.5251V55.2836H84.0777L84.0826 42.4531ZM101.273 42.4531H105.974L110 55.2836H106.151L105.477 52.8968H101.273L100.599 55.2836H97.2109L101.273 42.4531ZM101.982 50.3688H104.767L103.379 45.4341L101.982 50.3688ZM109.998 26.0326L80.0027 0.5L60.8364 16.5979L50.2146 7.66921L39.4838 16.667L33.7015 11.8896L0 26.0306V29.4484H29.5085L39.4828 21.0898L50.2136 29.9594L60.8334 21.0417L70.8166 29.4494H110V26.0366L109.998 26.0326ZM28.2999 26.0326H8.79444L33.0223 15.8214L36.8346 18.8824L28.2999 26.0326ZM50.2196 25.5316L42.1519 18.8734L50.2196 12.11L58.202 18.8233L50.2196 25.5316ZM63.4796 18.8243L80.0087 4.95283L104.766 26.0366H72.047L63.4796 18.8243Z" fill="#FF0D5E"/>
</svg>
